<svg width="0" height="0" class="hidden">
  <symbol version="1.1" id="clock" xmlns="http://www.w3.org/2000/svg" xmlns:xlink="http://www.w3.org/1999/xlink" x="0px" y="0px" xml:space="preserve" viewBox="0 0 488 488">
    <g transform="translate(0 -540.36)">
      <g>
        <g>
          <path d="M351.1,846.96l-97.1-67.9v-116.7c0-5.5-4.5-10-10-10s-10,4.5-10,10v122c0,3.3,1.6,6.3,4.3,8.2l101.4,70.9
				c1.7,1.2,3.7,1.8,5.7,1.8v0c3.1,0,6.2-1.5,8.2-4.4C356.7,856.36,355.6,850.16,351.1,846.96z"></path>
          <path d="M416.4,611.96L416.4,611.96c-46.2-46.2-107.4-71.6-172.4-71.6s-126.2,25.4-172.4,71.6C25.4,658.16,0,719.36,0,784.36
				s25.4,126.2,71.6,172.4c46.2,46.2,107.4,71.6,172.4,71.6s126.2-25.4,172.4-71.6s71.6-107.4,71.6-172.4S462.6,658.16,416.4,611.96
				z M254,1008.16L254,1008.16v-40.8c0-5.5-4.5-10-10-10s-10,4.5-10,10v40.8c-115.6-5.1-208.7-98.2-213.8-213.8H61
				c5.5,0,10-4.5,10-10s-4.5-10-10-10H20.2c5.1-115.6,98.2-208.7,213.8-213.8v40.8c0,5.5,4.5,10,10,10s10-4.5,10-10v-40.8
				c115.6,5.1,208.7,98.2,213.8,213.8H427c-5.5,0-10,4.5-10,10s4.5,10,10,10h40.8C462.7,909.96,369.6,1003.06,254,1008.16z"></path>
        </g>
      </g>
    </g>
    <g></g>
    <g></g>
    <g></g>
    <g></g>
    <g></g>
    <g></g>
    <g></g>
    <g></g>
    <g></g>
    <g></g>
    <g></g>
    <g></g>
    <g></g>
    <g></g>
    <g></g>
  </symbol>
  <symbol version="1.1" id="computer" xmlns="http://www.w3.org/2000/svg" xmlns:xlink="http://www.w3.org/1999/xlink" x="0px" y="0px" xml:space="preserve" viewBox="0 0 389.981 389.981">
    <g>
      <path d="M145.407,248.988l-2.775,26.209c-0.224,2.115,0.46,4.225,1.883,5.806c1.422,1.581,3.449,2.483,5.576,2.483h79.301
		c2.126,0,4.153-0.903,5.576-2.483c1.422-1.581,2.106-3.691,1.883-5.806l-2.775-26.209h98.777c15.374,0,27.881-12.507,27.881-27.881
		V27.881C360.733,12.507,348.225,0,332.852,0H40.63C25.256,0,12.749,12.507,12.749,27.881v193.226
		c0,15.374,12.507,27.881,27.881,27.881H145.407z M221.055,268.487h-62.629l2.064-19.499h58.5L221.055,268.487z M40.63,15h292.222
		c7.103,0,12.881,5.778,12.881,12.881V197.99H27.749V27.881C27.749,20.778,33.527,15,40.63,15z M27.749,221.107v-8.117h317.983
		v8.117c0,7.103-5.778,12.881-12.881,12.881H40.63C33.527,233.988,27.749,228.21,27.749,221.107z"></path>
      <path d="M332.645,333.876c1.36-2.24,1.453-5.027,0.244-7.352l-14.813-28.499c-1.291-2.483-3.856-4.041-6.655-4.041H62.061
		c-2.798,0-5.364,1.558-6.655,4.041l-14.813,28.499c-1.208,2.325-1.116,5.112,0.244,7.352s3.791,3.607,6.411,3.607h278.986
		C328.854,337.484,331.285,336.116,332.645,333.876z M59.599,322.484l7.016-13.499h240.251l7.017,13.499H59.599z"></path>
      <path d="M345.733,350.982h-12c-17.368,0-31.499,14.13-31.499,31.499c0,4.142,3.358,7.5,7.5,7.5h59.997c4.142,0,7.5-3.358,7.5-7.5
		C377.232,365.113,363.102,350.982,345.733,350.982z M319.04,374.981c2.735-5.337,8.295-8.999,14.693-8.999h12
		c6.398,0,11.958,3.662,14.694,8.999H319.04z"></path>
    </g>
    <g></g>
    <g></g>
    <g></g>
    <g></g>
    <g></g>
    <g></g>
    <g></g>
    <g></g>
    <g></g>
    <g></g>
    <g></g>
    <g></g>
    <g></g>
    <g></g>
    <g></g>
  </symbol>
  <symbol version="1.1" id="growth" xmlns="http://www.w3.org/2000/svg" xmlns:xlink="http://www.w3.org/1999/xlink" x="0px" y="0px" xml:space="preserve" viewBox="0 0 302.527 302.527">
    <g>
      <path d="M77.188,248.075c1.821,0,3.656-0.178,5.454-0.527c7.472-1.45,13.93-5.723,18.187-12.032
		c4.256-6.308,5.801-13.896,4.35-21.368c-0.769-3.956-2.345-7.587-4.528-10.744l30.273-34.928c4.304,2.584,9.314,4.06,14.607,4.06
		c1.821,0,3.656-0.177,5.455-0.526c7.47-1.45,13.928-5.724,18.185-12.032c3.541-5.25,5.197-11.386,4.819-17.602l46.118-18.565
		c5.196,5.177,12.338,8.326,20.081,8.326c1.821,0,3.657-0.178,5.457-0.527c15.42-2.996,25.527-17.979,22.532-33.397
		c-0.987-5.094-3.308-9.652-6.552-13.348l20.836-46.246l5.719,12.769c1.247,2.785,3.983,4.437,6.849,4.437
		c1.024,0,2.066-0.211,3.061-0.657c3.78-1.693,5.473-6.13,3.779-9.91l-13.371-29.855c-0.813-1.815-2.314-3.233-4.173-3.942
		c-1.857-0.708-3.923-0.65-5.738,0.163l-29.849,13.371c-3.78,1.693-5.472,6.131-3.778,9.911c1.693,3.781,6.131,5.472,9.911,3.778
		l13.918-6.235l-19.854,44.067c-2.755-0.89-5.681-1.369-8.698-1.369c-1.821,0-3.657,0.178-5.457,0.527
		c-15.417,2.996-25.527,17.979-22.536,33.402c0.104,0.536,0.229,1.063,0.361,1.587l-43.424,17.48
		c-5.168-7.667-13.916-12.595-23.605-12.595c-1.82,0-3.656,0.178-5.455,0.527c-15.421,2.994-25.531,17.977-22.537,33.4
		c0.564,2.903,1.562,5.633,2.915,8.128l-31.315,36.128c-3.657-1.701-7.715-2.644-11.951-2.644c-1.82,0-3.654,0.177-5.454,0.526
		c-7.471,1.451-13.929,5.725-18.185,12.033c-4.256,6.309-5.801,13.897-4.349,21.369C51.843,238.377,63.594,248.075,77.188,248.075z
		 M237.643,90.395c0.858-0.167,1.732-0.252,2.596-0.252c6.429,0,11.986,4.594,13.214,10.926c1.419,7.302-3.367,14.396-10.668,15.814
		c-0.858,0.167-1.732,0.252-2.596,0.252c-6.43,0-11.989-4.594-13.218-10.921C225.554,98.91,230.342,91.814,237.643,90.395z
		 M142.982,130.798c0.858-0.167,1.732-0.252,2.595-0.252c6.43,0,11.987,4.594,13.216,10.924c0.688,3.538-0.043,7.131-2.059,10.118
		c-2.015,2.986-5.071,5.01-8.609,5.696c-0.858,0.167-1.732,0.251-2.595,0.251c-6.431,0-11.991-4.594-13.221-10.921
		C130.893,139.31,135.68,132.216,142.982,130.798z M66.029,212.034c2.015-2.986,5.073-5.01,8.61-5.697
		c0.858-0.166,1.73-0.251,2.594-0.251c6.43,0,11.989,4.594,13.22,10.922c0.687,3.538-0.045,7.132-2.061,10.119
		c-2.015,2.986-5.072,5.01-8.61,5.696c-0.858,0.167-1.732,0.252-2.595,0.252c-6.429,0-11.987-4.594-13.217-10.922
		C63.283,218.615,64.015,215.021,66.029,212.034z"></path>
      <path d="M294.547,263.379H31.109V31.158c0-4.143-3.357-7.5-7.5-7.5c-4.142,0-7.5,3.357-7.5,7.5v232.221H7.5
		c-4.143,0-7.5,3.358-7.5,7.5c0,4.143,3.357,7.5,7.5,7.5h8.609v5.684c0,4.143,3.358,7.5,7.5,7.5c4.143,0,7.5-3.357,7.5-7.5v-5.684
		h263.438c4.143,0,7.5-3.357,7.5-7.5C302.047,266.736,298.689,263.379,294.547,263.379z"></path>
    </g>
    <g></g>
    <g></g>
    <g></g>
    <g></g>
    <g></g>
    <g></g>
    <g></g>
    <g></g>
    <g></g>
    <g></g>
    <g></g>
    <g></g>
    <g></g>
    <g></g>
    <g></g>
  </symbol>
  <symbol version="1.1" id="menu" xmlns="http://www.w3.org/2000/svg" xmlns:xlink="http://www.w3.org/1999/xlink" x="0px" y="0px" xml:space="preserve" viewBox="0 0 330 330">
    <g>
      <path d="M315,0H15C6.716,0,0,6.716,0,15v300c0,8.284,6.716,15,15,15h300c8.284,0,15-6.716,15-15V15C330,6.716,323.284,0,315,0z
		 M300,300H30V30h270V300z"></path>
      <path d="M90.001,109.999h150c8.284,0,15-6.716,15-15s-6.716-15-15-15h-150c-8.284,0-15,6.716-15,15S81.717,109.999,90.001,109.999z
		"></path>
      <path d="M90.001,179.999h150c8.284,0,15-6.716,15-15c0-8.284-6.716-15-15-15h-150c-8.284,0-15,6.716-15,15
		C75.001,173.283,81.717,179.999,90.001,179.999z"></path>
      <path d="M90.001,249.999h150c8.284,0,15-6.716,15-15c0-8.284-6.716-15-15-15h-150c-8.284,0-15,6.716-15,15
		C75.001,243.283,81.717,249.999,90.001,249.999z"></path>
    </g>
    <g></g>
    <g></g>
    <g></g>
    <g></g>
    <g></g>
    <g></g>
    <g></g>
    <g></g>
    <g></g>
    <g></g>
    <g></g>
    <g></g>
    <g></g>
    <g></g>
    <g></g>
  </symbol>
  <symbol xmlns="http://www.w3.org/2000/svg" viewBox="0 0 24 24" id="quote">
    <rect x="0" fill="none" width="24" height="24"></rect>
    <g>
      <path d="M11.192 15.757c0-.88-.23-1.618-.69-2.217-.326-.412-.768-.683-1.327-.812-.55-.128-1.07-.137-1.54-.028-.16-.95.1-1.956.76-3.022.66-1.065 1.515-1.867 2.558-2.403L9.373 5c-.8.396-1.56.898-2.26 1.505-.71.607-1.34 1.305-1.9 2.094s-.98 1.68-1.25 2.69-.346 2.04-.217 3.1c.168 1.4.62 2.52 1.356 3.35.735.84 1.652 1.26 2.748 1.26.965 0 1.766-.29 2.4-.878.628-.576.94-1.365.94-2.368l.002.003zm9.124 0c0-.88-.23-1.618-.69-2.217-.326-.42-.77-.692-1.327-.817-.56-.124-1.074-.13-1.54-.022-.16-.94.09-1.95.75-3.02.66-1.06 1.514-1.86 2.557-2.4L18.49 5c-.8.396-1.555.898-2.26 1.505-.708.607-1.34 1.305-1.894 2.094-.556.79-.97 1.68-1.24 2.69-.273 1-.345 2.04-.217 3.1.165 1.4.615 2.52 1.35 3.35.732.833 1.646 1.25 2.742 1.25.967 0 1.768-.29 2.402-.876.627-.576.942-1.365.942-2.368v.01z"></path>
    </g>
  </symbol>
  <symbol version="1.1" id="snap" xmlns="http://www.w3.org/2000/svg" xmlns:xlink="http://www.w3.org/1999/xlink" x="0px" y="0px" xml:space="preserve" viewBox="0 0 463 463">
    <g>
      <path d="M439.5,50.581h-416c-12.958,0-23.5,10.542-23.5,23.5v229.675c0,0.002,0,0.003,0,0.005v85.159
		c0,12.958,10.542,23.5,23.5,23.5h416c12.958,0,23.5-10.542,23.5-23.5V74.081C463,61.123,452.458,50.581,439.5,50.581z M23.5,65.581
		h416c4.687,0,8.5,3.813,8.5,8.5v236.629h-76.103L222.352,161.165c-2.929-2.929-7.678-2.929-10.606,0l-81.407,81.406l-30.826-30.826
		c-2.929-2.929-7.678-2.929-10.606,0L15,285.651V74.081C15,69.394,18.813,65.581,23.5,65.581z M439.5,397.419h-416
		c-4.687,0-8.5-3.813-8.5-8.5v-82.055l79.209-79.209l30.823,30.823c0.001,0.001,0.001,0.002,0.002,0.002s0.001,0.001,0.002,0.002
		l36.127,36.127c2.929,2.929,7.678,2.929,10.606,0c2.929-2.929,2.929-7.678,0-10.606l-30.826-30.826l76.103-76.103l146.438,146.438
		c1.406,1.407,3.314,2.197,5.303,2.197H448v63.209C448,393.606,444.187,397.419,439.5,397.419z"></path>
      <path d="M354.338,195.645c20.073,0,36.403-16.331,36.403-36.403s-16.331-36.403-36.403-36.403s-36.403,16.33-36.403,36.403
		S334.266,195.645,354.338,195.645z M354.338,137.839c11.802,0,21.403,9.601,21.403,21.403s-9.602,21.403-21.403,21.403
		s-21.403-9.602-21.403-21.403S342.537,137.839,354.338,137.839z"></path>
    </g>
    <g></g>
    <g></g>
    <g></g>
    <g></g>
    <g></g>
    <g></g>
    <g></g>
    <g></g>
    <g></g>
    <g></g>
    <g></g>
    <g></g>
    <g></g>
    <g></g>
    <g></g>
  </symbol>
  <symbol xmlnsRdf="http://www.w3.org/1999/02/22-rdf-syntax-ns#" xmlns="http://www.w3.org/2000/svg" xmlnsCc="http://web.resource.org/cc/" xmlnsDc="http://purl.org/dc/elements/1.1/" xmlnsSvg="http://www.w3.org/2000/svg" id="tick" version="1.0" viewBox="0 0 45.839 37.809">
    <g id="layer1" transform="translate(-177.08 -499.17)">
      <path id="path2469" d="m180.53 512.18c-1.98 2.48-0.8 8.34 2.96 13.89 1.85 2.74 4.02 4.92 6.09 6.32 0.02 0.02 0.04 0.03 0.06 0.05 2.6 2.61 6.69 2.73 9.14 0.28l19.88-19.88c2.45-2.45 2.33-6.53-0.28-9.14-2.6-2.6-6.67-2.71-9.12-0.26l-13.34 13.34c-4.08-5.72-9.45-8.79-12.23-6.91l-2.45 1.68c-0.26 0.18-0.51 0.38-0.71 0.63z" fill-rule="evenodd" stroke="#000" stroke-linecap="round" stroke-width="5" fill="#0f0"></path>
    </g>
    <metadata>
      <rdf:RDF>
        <cc:Work>
          <dc:format>image/svg+xml</dc:format>
          <dc:type rdfResource="http://purl.org/dc/dcmitype/StillImage"></dc:type>
          <cc:license rdfResource="http://creativecommons.org/licenses/publicdomain/"></cc:license>
          <dc:publisher>
            <cc:Agent rdfAbout="http://openclipart.org/">
              <dc:title>Openclipart</dc:title>
            </cc:Agent>
          </dc:publisher>
          <dc:title>tick</dc:title>
          <dc:date>2008-03-19T23:42:05</dc:date>
          <dc:description>clip art, clipart, icon, icon, image, media, public domain, sign, sign, svg, tick, tick,</dc:description>
          <dc:source>http://openclipart.org/detail/15874/tick-by-mcol</dc:source>
          <dc:creator>
            <cc:Agent>
              <dc:title>mcol</dc:title>
            </cc:Agent>
          </dc:creator>
          <dc:subject>
            <rdf:Bag>
              <rdf:li>clip art</rdf:li>
              <rdf:li>clipart</rdf:li>
              <rdf:li>icon</rdf:li>
              <rdf:li>image</rdf:li>
              <rdf:li>media</rdf:li>
              <rdf:li>public domain</rdf:li>
              <rdf:li>sign</rdf:li>
              <rdf:li>svg</rdf:li>
              <rdf:li>tick</rdf:li>
            </rdf:Bag>
          </dc:subject>
        </cc:Work>
        <cc:License rdfAbout="http://creativecommons.org/licenses/publicdomain/">
          <cc:permits rdfResource="http://creativecommons.org/ns#Reproduction"></cc:permits>
          <cc:permits rdfResource="http://creativecommons.org/ns#Distribution"></cc:permits>
          <cc:permits rdfResource="http://creativecommons.org/ns#DerivativeWorks"></cc:permits>
        </cc:License>
      </rdf:RDF>
    </metadata>
  </symbol>
</svg>